<svg width="29" height="24" viewBox="0 0 29 24" fill="none" xmlns="http://www.w3.org/2000/svg">
<path d="M14.5 17.3008C14.168 17.3008 13.875 17.1738 13.6211 16.9102L6.17969 9.30273C5.96484 9.08789 5.84766 8.81445 5.84766 8.50195C5.84766 7.86719 6.3457 7.36914 6.98047 7.36914C7.29297 7.36914 7.57617 7.49609 7.80078 7.71094L14.5 14.5762L21.1992 7.71094C21.4141 7.49609 21.707 7.36914 22.0195 7.36914C22.6445 7.36914 23.1426 7.86719 23.1426 8.50195C23.1426 8.82422 23.0352 9.08789 22.8203 9.30273L15.3789 16.9102C15.1348 17.1738 14.832 17.3008 14.5 17.3008Z" fill="black"/>
</svg>
