<svg width="29" height="24" viewBox="0 0 29 24" fill="none" xmlns="http://www.w3.org/2000/svg">
<path d="M8.24023 11.9492C8.25 11.6172 8.36719 11.334 8.63086 11.0801L16.248 3.62891C16.4531 3.41406 16.7266 3.30664 17.0391 3.30664C17.6738 3.30664 18.1719 3.79492 18.1719 4.42969C18.1719 4.74219 18.0449 5.02539 17.8301 5.25L10.9648 11.9492L17.8301 18.6484C18.0449 18.8633 18.1719 19.1465 18.1719 19.459C18.1719 20.1035 17.6738 20.5918 17.0391 20.5918C16.7266 20.5918 16.4531 20.4844 16.248 20.2695L8.63086 12.8184C8.36719 12.5645 8.24023 12.2812 8.24023 11.9492Z" fill="black"/>
</svg>
