<svg width="29" height="24" viewBox="0 0 29 24" fill="none" xmlns="http://www.w3.org/2000/svg">
<path d="M20.75 11.9492C20.75 12.2812 20.6328 12.5645 20.3691 12.8184L12.752 20.2695C12.5371 20.4844 12.2734 20.5918 11.9609 20.5918C11.3262 20.5918 10.8184 20.1035 10.8184 19.459C10.8184 19.1465 10.9551 18.8633 11.1602 18.6484L18.0352 11.9492L11.1602 5.25C10.9453 5.02539 10.8184 4.74219 10.8184 4.42969C10.8184 3.79492 11.3262 3.30664 11.9609 3.30664C12.2734 3.30664 12.5371 3.41406 12.752 3.62891L20.3691 11.0801C20.623 11.334 20.75 11.6172 20.75 11.9492Z" fill="black"/>
</svg>
