<svg width="29" height="24" viewBox="0 0 29 24" fill="none" xmlns="http://www.w3.org/2000/svg">
<path d="M6.17969 14.6445L13.6211 7.02734C13.875 6.76367 14.168 6.63672 14.5 6.63672C14.832 6.63672 15.1348 6.77344 15.3789 7.02734L22.8203 14.6445C23.0352 14.8496 23.1426 15.123 23.1426 15.4355C23.1426 16.0703 22.6445 16.5684 22.0195 16.5684C21.707 16.5684 21.4141 16.4512 21.1992 16.2266L14.5 9.36133L7.80078 16.2266C7.58594 16.4512 7.29297 16.5684 6.98047 16.5684C6.3457 16.5684 5.84766 16.0703 5.84766 15.4355C5.84766 15.123 5.96484 14.8496 6.17969 14.6445Z" fill="black"/>
</svg>
