<svg width="24" height="24" viewBox="0 0 24 24" fill="none" xmlns="http://www.w3.org/2000/svg">
<path d="M4.20703 18.3359C3.20117 18.3359 2.5957 17.7891 2.5957 16.9785C2.5957 15.9531 3.5332 15.0645 4.41211 14.2148C5.0957 13.5508 5.26172 12.1543 5.37891 10.875C5.51562 7.28125 6.56055 4.75195 9.09961 3.83398C9.5 2.54492 10.5547 1.55859 12 1.55859C13.4453 1.55859 14.5 2.54492 14.9004 3.83398C17.4395 4.75195 18.4844 7.28125 18.6211 10.875C18.748 12.1543 18.9043 13.5508 19.5879 14.2148C20.4668 15.0645 21.4141 15.9531 21.4141 16.9785C21.4141 17.7891 20.7988 18.3359 19.8027 18.3359H4.20703ZM12 22.3496C10.2812 22.3496 9.02148 21.1191 8.89453 19.6934H15.1152C14.9785 21.1191 13.7285 22.3496 12 22.3496Z" fill="black"/>
</svg>
