<svg width="24" height="24" viewBox="0 0 24 24" fill="none" xmlns="http://www.w3.org/2000/svg">
<path d="M2.52734 17.2324C2.52734 16.1973 3.48438 15.3086 4.36328 14.4492C5.05664 13.7754 5.21289 12.4277 5.33984 11.0898C5.4668 7.38867 6.54102 4.91797 9.08984 3.99023C9.46094 2.70117 10.5449 1.71484 12 1.71484C13.4551 1.71484 14.5391 2.70117 14.9102 3.99023C17.459 4.91797 18.5332 7.38867 18.6602 11.0898C18.7871 12.4277 18.9531 13.7754 19.6367 14.4492C20.5254 15.3086 21.4727 16.1973 21.4727 17.2324C21.4727 18.0527 20.8574 18.6094 19.8418 18.6094H15.8281C15.7402 20.4844 14.2168 22.1836 12 22.1836C9.7832 22.1836 8.25977 20.4746 8.17188 18.6094H4.1582C3.15234 18.6094 2.52734 18.0527 2.52734 17.2324ZM4.86133 16.8223H19.1191V16.7051C18.875 16.4219 18.3281 15.9043 17.8398 15.3477C17.1758 14.5762 16.8535 13.1797 16.7559 11.3242C16.6484 7.35938 15.4277 6.04102 13.8555 5.61133C13.6113 5.55273 13.4746 5.43555 13.4551 5.17188C13.416 4.17578 12.8594 3.51172 12 3.51172C11.1406 3.51172 10.5938 4.17578 10.5449 5.17188C10.5254 5.43555 10.3887 5.55273 10.1543 5.61133C8.57227 6.04102 7.36133 7.35938 7.24414 11.3242C7.14648 13.1797 6.83398 14.5762 6.16016 15.3477C5.68164 15.9043 5.11523 16.4219 4.86133 16.7051V16.8223ZM10.0176 18.6094C10.0957 19.8301 10.8965 20.6211 12 20.6211C13.1133 20.6211 13.9141 19.8301 13.9824 18.6094H10.0176Z" fill="black"/>
</svg>
