<svg width="24" height="24" viewBox="0 0 24 24" fill="none" xmlns="http://www.w3.org/2000/svg">
<path d="M2.52734 17.2324C2.52734 16.1973 3.48438 15.3086 4.36328 14.4492C5.05664 13.7754 5.21289 12.4277 5.33984 11.0898C5.4668 7.38867 6.54102 4.91797 9.08984 3.99023C9.46094 2.70117 10.5449 1.71484 12 1.71484C12.4883 1.71484 12.9375 1.83203 13.3281 2.02734C12.9277 2.4668 12.625 2.99414 12.4492 3.58008C12.3223 3.52148 12.166 3.51172 12 3.51172C11.1406 3.51172 10.5938 4.17578 10.5449 5.17188C10.5254 5.43555 10.3887 5.55273 10.1543 5.61133C8.57227 6.03125 7.36133 7.35938 7.24414 11.3242C7.14648 13.1797 6.83398 14.5762 6.16016 15.3477C5.68164 15.9043 5.11523 16.4219 4.86133 16.7051V16.8223H19.1191V16.7051C18.875 16.4219 18.3281 15.9043 17.8398 15.3477C17.1758 14.5762 16.8535 13.1797 16.7559 11.3242C16.7461 10.7578 16.707 10.2598 16.6582 9.81055C17.2734 9.88867 17.9863 9.79102 18.5625 9.55664C18.6211 10.0645 18.6602 10.5918 18.6699 11.1582C18.7969 12.457 18.9531 13.7852 19.6367 14.4492C20.5254 15.3086 21.4727 16.1973 21.4727 17.2324C21.4727 18.0527 20.8574 18.6094 19.8418 18.6094H15.8281C15.7402 20.4746 14.2168 22.1836 12 22.1836C9.7832 22.1836 8.25977 20.4746 8.17188 18.6094H4.1582C3.15234 18.6094 2.52734 18.0527 2.52734 17.2324ZM16.8828 8.53125C15.0273 8.53125 13.5137 7.01758 13.5137 5.16211C13.5137 3.31641 15.0273 1.79297 16.8828 1.79297C18.7188 1.79297 20.252 3.31641 20.252 5.16211C20.252 7.01758 18.7188 8.53125 16.8828 8.53125ZM10.0176 18.6094C10.0957 19.8301 10.8965 20.6211 12 20.6211C13.1133 20.6211 13.9141 19.8301 13.9824 18.6094H10.0176Z" fill="#111111"/>
</svg>
