<svg width="24" height="24" viewBox="0 0 24 24" fill="none" xmlns="http://www.w3.org/2000/svg">
<path d="M4.20703 18.3359C3.20117 18.3359 2.5957 17.7891 2.5957 16.9785C2.5957 15.9531 3.5332 15.0645 4.41211 14.2148C5.0957 13.5508 5.26172 12.1543 5.37891 10.875C5.51562 7.28125 6.56055 4.75195 9.09961 3.83398C9.5 2.54492 10.5547 1.55859 12 1.55859C12.4883 1.55859 12.9375 1.66602 13.3281 1.88086C12.5859 2.71094 12.127 3.80469 12.127 5.00586C12.127 7.61328 14.2656 9.75195 16.873 9.75195C17.459 9.75195 18.0254 9.625 18.5332 9.41016C18.6113 9.99609 18.6602 10.6016 18.6895 11.2363C18.7773 12.3301 18.9629 13.5996 19.5879 14.2148C20.4668 15.0645 21.4141 15.9531 21.4141 16.9785C21.4141 17.7891 20.7988 18.3359 19.8027 18.3359H4.20703ZM16.8828 8.375C15.0273 8.375 13.5137 6.85156 13.5137 5.00586C13.5137 3.15039 15.0273 1.63672 16.8828 1.63672C18.7188 1.63672 20.252 3.15039 20.252 5.00586C20.252 6.85156 18.7188 8.375 16.8828 8.375ZM12.0098 22.3496C10.2812 22.3496 9.02148 21.1191 8.89453 19.6934H15.1152C14.9883 21.1191 13.7285 22.3496 12.0098 22.3496Z" fill="#020202"/>
</svg>
