<svg width="44" height="44" viewBox="0 0 44 44" fill="none" xmlns="http://www.w3.org/2000/svg">
<path d="M32 6C32 5.46956 31.7892 4.96102 31.414 4.58594C31.039 4.21086 30.5304 4 30 4L14 4C13.4696 4 12.961 4.21086 12.5859 4.58594C12.2109 4.96102 12 5.46956 12 6L12 40L32 40L32 6ZM36 42C36 43.1046 35.1046 44 34 44L10 44C8.89544 44 8 43.1046 8 42L8 6C8 4.4087 8.6326 2.88304 9.75782 1.75782C10.883 0.6326 12.4087 0 14 0L30 0C31.5912 0 33.117 0.6326 34.2422 1.75782C35.3674 2.88304 36 4.4087 36 6L36 42Z" fill="#111827"/>
<path d="M0 38L0 26C0 24.4088 0.6326 22.883 1.75782 21.7578C2.88304 20.6326 4.4087 20 6 20L10 20C11.1046 20 12 20.8954 12 22C12 23.1046 11.1046 24 10 24L6 24C5.46956 24 4.96102 24.2108 4.58594 24.586C4.21086 24.961 4 25.4696 4 26L4 38L4.00976 38.1972C4.05514 38.6552 4.25766 39.0858 4.58594 39.414C4.96102 39.7892 5.46956 40 6 40H10C11.1046 40 12 40.8954 12 42C12 43.1046 11.1046 44 10 44H6C4.4087 44 2.88304 43.3674 1.75782 42.2422C0.6326 41.117 0 39.5912 0 38Z" fill="#111827"/>
<path d="M40 38L40 20C40 19.4696 39.7892 18.961 39.414 18.586C39.039 18.2108 38.5304 18 38 18H34C32.8954 18 32 17.1046 32 16C32 14.8954 32.8954 14 34 14L38 14C39.5914 14 41.117 14.6326 42.2422 15.7578C43.3674 16.883 44 18.4086 44 20L44 38C44 39.5914 43.3674 41.117 42.2422 42.2422C41.117 43.3674 39.5914 44 38 44H34C32.8954 44 32 43.1046 32 42C32 40.8954 32.8954 40 34 40H38C38.5304 40 39.039 39.7892 39.414 39.414C39.7892 39.039 40 38.5304 40 38Z" fill="#111827"/>
<path d="M26 8C27.1046 8 28 8.89544 28 10C28 11.1046 27.1046 12 26 12L18 12C16.8954 12 16 11.1046 16 10C16 8.89544 16.8954 8 18 8L26 8Z" fill="#111827"/>
<path d="M26 16C27.1046 16 28 16.8954 28 18C28 19.1046 27.1046 20 26 20L18 20C16.8954 20 16 19.1046 16 18C16 16.8954 16.8954 16 18 16L26 16Z" fill="#111827"/>
<path d="M26 24C27.1046 24 28 24.8954 28 26C28 27.1046 27.1046 28 26 28L18 28C16.8954 28 16 27.1046 16 26C16 24.8954 16.8954 24 18 24L26 24Z" fill="#111827"/>
<path d="M26 32C27.1046 32 28 32.8954 28 34C28 35.1046 27.1046 36 26 36H18C16.8954 36 16 35.1046 16 34C16 32.8954 16.8954 32 18 32H26Z" fill="#111827"/>
</svg>
