<svg width="24" height="24" viewBox="0 0 24 24" fill="none" xmlns="http://www.w3.org/2000/svg">
<path d="M12 22.0371C6.43359 22.0371 1.91211 17.5156 1.91211 11.9492C1.91211 6.38281 6.43359 1.86133 12 1.86133C17.5664 1.86133 22.0879 6.38281 22.0879 11.9492C22.0879 17.5156 17.5664 22.0371 12 22.0371ZM12 20.0449C16.4824 20.0449 20.1055 16.4316 20.1055 11.9492C20.1055 7.4668 16.4824 3.84375 12 3.84375C7.51758 3.84375 3.89453 7.4668 3.89453 11.9492C3.89453 16.4316 7.51758 20.0449 12 20.0449ZM10.9453 16.5879C10.584 16.5879 10.3008 16.4414 10.0371 16.0996L7.73242 13.2871C7.56641 13.082 7.47852 12.8672 7.47852 12.6328C7.47852 12.1445 7.85938 11.7637 8.33789 11.7637C8.62109 11.7637 8.85547 11.8711 9.08984 12.1738L10.9062 14.4883L14.7637 8.29688C14.9688 7.96484 15.2324 7.80859 15.5254 7.80859C15.9844 7.80859 16.4141 8.13086 16.4141 8.60938C16.4141 8.83398 16.2969 9.06836 16.1699 9.27344L11.8047 16.0996C11.5996 16.4121 11.2969 16.5879 10.9453 16.5879Z" fill="black"/>
</svg>
