<svg width="24" height="24" viewBox="0 0 24 24" fill="none" xmlns="http://www.w3.org/2000/svg">
<path d="M12 22.0371C6.43359 22.0371 1.91211 17.5156 1.91211 11.9492C1.91211 6.38281 6.43359 1.86133 12 1.86133C17.5664 1.86133 22.0879 6.38281 22.0879 11.9492C22.0879 17.5156 17.5664 22.0371 12 22.0371ZM10.916 16.7734C11.2773 16.7734 11.5898 16.5879 11.8145 16.2559L16.3848 9.12695C16.5215 8.91211 16.6387 8.66797 16.6387 8.44336C16.6387 7.93555 16.1992 7.59375 15.7109 7.59375C15.3984 7.59375 15.125 7.75977 14.9199 8.10156L10.877 14.5664L8.99219 12.1738C8.74805 11.8613 8.51367 11.7441 8.21094 11.7441C7.70312 11.7441 7.3125 12.1543 7.3125 12.6523C7.3125 12.8965 7.40039 13.1309 7.57617 13.3457L9.96875 16.2559C10.2422 16.6074 10.5449 16.7734 10.916 16.7734Z" fill="black"/>
</svg>
