<svg width="28" height="24" viewBox="0 0 28 24" fill="none" xmlns="http://www.w3.org/2000/svg">
<path d="M8.81445 22.418C6.79297 22.418 5.78711 21.4023 5.78711 19.3613V4.54688C5.78711 2.51562 6.80273 1.48047 8.81445 1.48047H13.2969V8.64844C13.2969 9.89844 13.8926 10.4941 15.1426 10.4941H22.2129V19.3613C22.2129 21.3926 21.207 22.418 19.1855 22.418H8.81445ZM15.1719 9.15625C14.8105 9.15625 14.6348 8.98047 14.6348 8.62891V1.58789C15.0449 1.65625 15.4453 1.93945 15.9043 2.4082L21.2852 7.88672C21.7539 8.36523 22.0371 8.75586 22.0957 9.15625H15.1719ZM10.1719 14.7422H17.8574C18.2285 14.7422 18.5117 14.4688 18.5117 14.1074C18.5117 13.7461 18.2285 13.4629 17.8574 13.4629H10.1719C9.79102 13.4629 9.50781 13.7461 9.50781 14.1074C9.50781 14.4688 9.79102 14.7422 10.1719 14.7422ZM10.1719 18.4434H17.8574C18.2285 18.4434 18.5117 18.1699 18.5117 17.8086C18.5117 17.4473 18.2285 17.1641 17.8574 17.1641H10.1719C9.79102 17.1641 9.50781 17.4473 9.50781 17.8086C9.50781 18.1699 9.79102 18.4434 10.1719 18.4434Z" fill="black"/>
</svg>
