<svg width="31" height="25" viewBox="0 0 31 25" fill="none" xmlns="http://www.w3.org/2000/svg">
<path d="M7.12109 12.9453V4.58594C7.12109 2.48633 8.20508 1.38281 10.2949 1.38281H15.002C16.2227 1.38281 16.8965 1.57812 17.7168 2.4082L22.8438 7.62305C23.6934 8.48242 23.8691 9.10742 23.8691 10.4648V19.3223C23.8691 21.4219 22.7852 22.5254 20.6953 22.5254H13.5859C13.9375 21.9492 14.1914 21.2949 14.3086 20.6113H20.5293C21.4766 20.6113 21.9551 20.1133 21.9551 19.2051V10.7188H16.6914C15.3047 10.7188 14.6113 10.0449 14.6113 8.64844V3.29688H10.4512C9.50391 3.29688 9.03516 3.80469 9.03516 4.70312V12.9453C8.70312 12.8965 8.39062 12.8672 8.06836 12.8672C7.74609 12.8672 7.43359 12.8965 7.12109 12.9453ZM16.3008 8.46289C16.3008 8.86328 16.4668 9.03906 16.8672 9.03906H21.6914L16.3008 3.56055V8.46289ZM8.07812 24.3027C5.32422 24.3027 3.04883 22.0371 3.04883 19.2734C3.04883 16.5293 5.32422 14.2539 8.07812 14.2539C10.832 14.2539 13.1074 16.5195 13.1074 19.2734C13.1074 22.0273 10.8125 24.3027 8.07812 24.3027ZM8.07812 22.4668C8.47852 22.4668 8.74219 22.1934 8.74219 21.8027V19.9473H10.5977C10.998 19.9473 11.2617 19.6836 11.2617 19.2832C11.2617 18.873 10.998 18.6094 10.5977 18.6094H8.74219V16.7637C8.74219 16.3633 8.47852 16.0996 8.07812 16.0996C7.67773 16.0996 7.41406 16.373 7.41406 16.7637V18.6094H5.55859C5.16797 18.6094 4.89453 18.873 4.89453 19.2832C4.89453 19.6836 5.16797 19.9473 5.55859 19.9473H7.41406V21.8027C7.41406 22.1934 7.67773 22.4668 8.07812 22.4668Z" fill="black"/>
</svg>
