<svg width="28" height="24" viewBox="0 0 28 24" fill="none" xmlns="http://www.w3.org/2000/svg">
<path d="M8.81445 22.418C6.79297 22.418 5.78711 21.4023 5.78711 19.3613V4.54688C5.78711 2.51562 6.80273 1.48047 8.81445 1.48047H13.4531C14.5469 1.48047 15.1621 1.64648 15.9043 2.4082L21.2852 7.88672C22.0664 8.6875 22.2129 9.23438 22.2129 10.4941V19.3613C22.2129 21.3926 21.207 22.418 19.1855 22.418H8.81445ZM8.88281 20.8457H19.1074C20.123 20.8457 20.6406 20.3086 20.6406 19.332V10.5625H15.0742C13.8535 10.5625 13.2383 9.95703 13.2383 8.72656V3.05273H8.89258C7.87695 3.05273 7.35938 3.60938 7.35938 4.57617V19.332C7.35938 20.3086 7.87695 20.8457 8.88281 20.8457ZM15.25 9.08789H20.3379L14.7129 3.35547V8.54102C14.7129 8.93164 14.8594 9.08789 15.25 9.08789ZM17.5938 13.2578C17.9355 13.2578 18.1895 13.5215 18.1895 13.8535C18.1895 14.1953 17.9355 14.459 17.5938 14.459H10.1816C9.83008 14.459 9.56641 14.1953 9.56641 13.8535C9.56641 13.5215 9.83008 13.2578 10.1816 13.2578H17.5938ZM17.5938 16.666C17.9355 16.666 18.1895 16.9395 18.1895 17.2812C18.1895 17.6133 17.9355 17.8672 17.5938 17.8672H10.1816C9.83008 17.8672 9.56641 17.6133 9.56641 17.2812C9.56641 16.9395 9.83008 16.666 10.1816 16.666H17.5938Z" fill="black"/>
</svg>
