<svg width="32" height="32" viewBox="0 0 32 32" fill="none" xmlns="http://www.w3.org/2000/svg">
<path d="M28.024 11.324C28.024 9.72954 27.3902 8.20081 26.2626 7.07334C25.1352 5.94588 23.6065 5.31201 22.012 5.31201C20.9702 5.31201 20.1591 5.45896 19.4092 5.78561C18.6506 6.11603 17.8704 6.66681 16.9446 7.59261C16.4229 8.11436 15.5772 8.11436 15.0555 7.59261C14.1296 6.66681 13.3494 6.11603 12.5909 5.78561C11.8409 5.45896 11.0299 5.31201 9.98802 5.31201C8.39354 5.31201 6.86481 5.94588 5.73735 7.07334C4.60988 8.20081 3.97602 9.72954 3.97602 11.324C3.97602 13.483 5.20448 15.2763 6.84894 16.9837L16 26.1348L24.4166 17.7182L25.1445 16.9825C26.7888 15.2599 28.024 13.4702 28.024 11.324ZM30.696 11.324C30.696 14.9841 28.2812 17.6684 26.2954 19.6154L26.2966 19.6166L16.9446 28.9686C16.4229 29.4904 15.5772 29.4904 15.0555 28.9686L5.71908 19.6323L4.95192 18.8677C3.14432 17.0007 1.30402 14.5422 1.30402 11.324C1.30402 9.02087 2.21828 6.81142 3.84685 5.18285C5.47542 3.55428 7.68487 2.64001 9.98802 2.64001C11.2975 2.64001 12.4909 2.82707 13.6581 3.33542C14.4774 3.69226 15.2409 4.19139 16 4.83319C16.7591 4.19139 17.5227 3.69226 18.3419 3.33542C19.5092 2.82707 20.7025 2.64001 22.012 2.64001C24.3151 2.64001 26.5246 3.55428 28.1532 5.18285C29.7818 6.81142 30.696 9.02087 30.696 11.324Z" fill="#151515"/>
<path d="M18.593 9.99066C19.157 9.95493 19.6827 10.2787 19.9054 10.7983L21.5623 14.6641L27.7218 14.6641L27.8588 14.6705C28.5324 14.7391 29.0578 15.3083 29.0578 16.0001C29.0578 16.6918 28.5324 17.261 27.8588 17.3296L27.7218 17.3361L20.6817 17.3361C20.1473 17.3361 19.6646 17.0171 19.454 16.5258L18.9295 15.302L17.2896 21.0427C17.1351 21.5831 16.659 21.9688 16.0984 22.0081C15.6078 22.0424 15.1447 21.8054 14.8837 21.4014L14.7846 21.2188L13.0349 17.2825C12.9165 17.3167 12.7927 17.336 12.6657 17.3361L4.27527 17.3361C3.53742 17.3361 2.93927 16.7378 2.93927 16.0001C2.93927 15.2622 3.53742 14.6641 4.27527 14.6641L11.8398 14.6641L12.1386 14.0665L12.2365 13.9021C12.4898 13.5373 12.9114 13.3178 13.3637 13.3281C13.8805 13.3397 14.3435 13.649 14.5536 14.1213L15.7304 16.7711L17.3926 10.9574L17.4656 10.7604C17.6695 10.3219 18.0994 10.0219 18.593 9.99066Z" fill="#151515"/>
</svg>
