<svg width="26" height="24" viewBox="0 0 26 24" fill="none" xmlns="http://www.w3.org/2000/svg">
<path d="M10.2461 18.7754V2.35938C10.4805 2.41797 10.7441 2.53516 11.0176 2.70117L15.5879 5.46484V21.6562C15.3535 21.5977 15.1582 21.5098 14.9336 21.3926L10.2461 18.7754ZM2.7168 20.0938V6.95898C2.7168 6.22656 3.01953 5.70898 3.67383 5.34766L8.10742 2.81836C8.36133 2.67188 8.60547 2.55469 8.83008 2.47656V19.0195L4.91406 21.1387C4.58203 21.3145 4.29883 21.4023 4.01562 21.4023C3.24414 21.4023 2.7168 20.9434 2.7168 20.0938ZM17.0137 21.6172V5.12305L20.9785 2.92578C21.3203 2.74023 21.6328 2.64258 21.9258 2.64258C22.7461 2.64258 23.2832 3.08203 23.2832 3.95117V17.0273C23.2832 17.7695 22.9805 18.2871 22.3066 18.6582L17.3457 21.4609C17.2383 21.5293 17.1211 21.5781 17.0137 21.6172Z" fill="black"/>
</svg>
