<svg width="26" height="24" viewBox="0 0 26 24" fill="none" xmlns="http://www.w3.org/2000/svg">
<path d="M4.04492 21.4023C3.23438 21.4023 2.74609 20.9238 2.74609 20.1035V6.96875C2.74609 6.22656 3.03906 5.70898 3.71289 5.33789L8.55664 2.58398C8.9082 2.37891 9.29883 2.28125 9.69922 2.28125C10.0996 2.28125 10.5 2.38867 10.8613 2.59375L15.998 5.70898L20.9492 2.95508C21.3398 2.74023 21.623 2.62305 21.9453 2.62305C22.7559 2.62305 23.2441 3.11133 23.2441 3.93164V17.0469C23.2441 17.7891 22.9512 18.3164 22.2871 18.6875L17.4043 21.4414C17.0527 21.6465 16.6523 21.7539 16.252 21.7539C15.8418 21.7539 15.4219 21.6367 15.0117 21.4219L9.80664 18.502L5.04102 21.0801C4.66016 21.2949 4.36719 21.4023 4.04492 21.4023ZM8.94727 16.7734V4.53711C8.83984 4.5957 8.74219 4.64453 8.63477 4.71289L4.91406 6.87109C4.65039 7.01758 4.55273 7.19336 4.55273 7.4668V18.8438C4.55273 18.9707 4.62109 19.0586 4.72852 19.0586C4.77734 19.0586 4.83594 19.0293 4.9043 19L8.94727 16.7734ZM10.7832 16.832L14.8066 19.0977C14.9434 19.166 15.0801 19.2344 15.207 19.3027V7.41797L11.0957 4.9375C10.998 4.87891 10.8809 4.82031 10.7832 4.77148V16.832ZM17.043 19.4492C17.1895 19.3809 17.3457 19.293 17.4922 19.2051L21.0859 17.125C21.3398 16.9785 21.4375 16.8027 21.4375 16.5293V5.19141C21.4375 5.07422 21.3594 4.98633 21.252 4.98633C21.2031 4.98633 21.1445 5.01562 21.0957 5.04492L17.043 7.25195V19.4492Z" fill="black"/>
</svg>
