<svg width="21" height="24" viewBox="0 0 21 24" fill="none" xmlns="http://www.w3.org/2000/svg">
<path d="M6.76953 10.6602V4.57617C6.76953 2.22266 8.3125 0.582031 10.5 0.582031C12.6973 0.582031 14.2305 2.22266 14.2305 4.57617V10.6602C14.2305 13.0039 12.6973 14.6445 10.5 14.6445C8.3125 14.6445 6.76953 13.0039 6.76953 10.6602ZM8.61523 10.6895C8.61523 11.998 9.34766 12.877 10.5 12.877C11.6523 12.877 12.3848 11.998 12.3848 10.6895V4.53711C12.3848 3.23828 11.6523 2.34961 10.5 2.34961C9.34766 2.34961 8.61523 3.23828 8.61523 4.53711V10.6895ZM6.01758 22.0566C5.51953 22.0566 5.09961 21.6465 5.09961 21.1484C5.09961 20.6406 5.51953 20.2305 6.01758 20.2305H9.61133V18.2188C5.74414 17.8574 3.08789 15.0938 3.08789 11.0898V9.15625C3.08789 8.64844 3.49805 8.24805 4.00586 8.24805C4.51367 8.24805 4.92383 8.64844 4.92383 9.15625V11.0215C4.92383 14.3418 7.16992 16.5391 10.5 16.5391C13.8301 16.5391 16.0762 14.3418 16.0762 11.0215V9.15625C16.0762 8.64844 16.4961 8.24805 17.0039 8.24805C17.5117 8.24805 17.9219 8.64844 17.9219 9.15625V11.0898C17.9219 15.0938 15.2656 17.8574 11.3984 18.2188V20.2305H14.9824C15.4902 20.2305 15.9102 20.6406 15.9102 21.1484C15.9102 21.6465 15.4902 22.0566 14.9824 22.0566H6.01758Z" fill="#0B0B0B"/>
</svg>
