<svg width="27" height="29" viewBox="0 0 27 29" fill="none" xmlns="http://www.w3.org/2000/svg">
<path d="M13.4609 2.1875C12.8555 2.1875 12.3672 1.69922 12.3672 1.09375C12.3672 0.488281 12.8555 0 13.4609 0C14.0664 0 14.5547 0.488281 14.5547 1.09375C14.5547 1.69922 14.0664 2.1875 13.4609 2.1875ZM21.0684 11.8457C18.3145 11.8457 16.0391 9.58008 16.0391 6.81641C16.0391 4.07227 18.3145 1.79688 21.0684 1.79688C23.8223 1.79688 26.0879 4.0625 26.0879 6.81641C26.0879 9.57031 23.793 11.8457 21.0684 11.8457ZM6.41016 4.63867C5.79492 4.63867 5.30664 4.15039 5.30664 3.54492C5.30664 2.93945 5.79492 2.45117 6.41016 2.45117C7.01562 2.45117 7.50391 2.93945 7.50391 3.54492C7.50391 4.15039 7.01562 4.63867 6.41016 4.63867ZM21.0684 7.66602C21.4492 7.66602 21.7227 7.40234 21.7422 7.03125L21.8203 4.26758C21.8301 3.82812 21.5176 3.52539 21.0684 3.52539C20.6094 3.52539 20.2969 3.82812 20.3066 4.26758L20.3945 7.03125C20.4043 7.40234 20.6777 7.66602 21.0684 7.66602ZM10.5996 21.1133C10.1406 21.1133 9.87695 20.8301 9.83789 20.3809C9.28125 14.4531 7.2207 13.4766 7.2207 9.98047C7.2207 6.72852 9.98438 4.19922 13.4609 4.19922C14.0469 4.19922 14.6035 4.26758 15.1309 4.4043C14.9258 4.92188 14.7793 5.45898 14.7305 6.02539C14.3203 5.92773 13.9004 5.87891 13.4609 5.87891C10.9805 5.87891 8.89062 7.58789 8.89062 9.98047C8.89062 12.4707 10.5605 13.0762 11.3613 19.4336H15.5703C16.1074 15.2148 17.0254 13.5254 17.582 12.1387C18.0508 12.4805 18.5781 12.7539 19.1543 12.9395C18.5098 14.6973 17.4648 16.4355 17.0938 20.3809C17.0547 20.8301 16.791 21.1133 16.332 21.1133H10.5996ZM21.0586 10.0977C21.5664 10.0977 21.9668 9.70703 21.9668 9.20898C21.9668 8.7207 21.5664 8.33008 21.0586 8.33008C20.5703 8.33008 20.1602 8.7207 20.1602 9.20898C20.1602 9.70703 20.5605 10.0977 21.0586 10.0977ZM3.98828 11.6895C3.38281 11.6895 2.89453 11.2012 2.89453 10.5957C2.89453 9.98047 3.38281 9.50195 3.98828 9.50195C4.60352 9.50195 5.08203 9.98047 5.08203 10.5957C5.08203 11.2012 4.60352 11.6895 3.98828 11.6895ZM10.541 23.2324C10.1895 23.2324 9.91602 22.959 9.91602 22.6172C9.91602 22.2754 10.1895 22.002 10.541 22.002H16.3906C16.7422 22.002 17.0254 22.2754 17.0254 22.6172C17.0254 22.959 16.7422 23.2324 16.3906 23.2324H10.541ZM13.4707 25.9668C11.9863 25.9668 10.7852 25.2246 10.7168 24.1309H16.2051C16.1367 25.2246 14.9355 25.9668 13.4707 25.9668Z" fill="black"/>
</svg>
