<svg width="23" height="24" viewBox="0 0 23 24" fill="none" xmlns="http://www.w3.org/2000/svg">
<path d="M11.5098 11.9883C9.14648 11.9883 7.23242 9.91797 7.23242 7.36914C7.23242 4.85938 9.15625 2.82812 11.5098 2.82812C13.873 2.82812 15.7773 4.83008 15.7773 7.34961C15.7773 9.9082 13.8633 11.9883 11.5098 11.9883ZM11.5098 10.2988C12.8672 10.2988 14.0098 9.01953 14.0098 7.34961C14.0098 5.72852 12.877 4.51758 11.5098 4.51758C10.1426 4.51758 9 5.74805 9 7.36914C9 9.0293 10.1523 10.2988 11.5098 10.2988ZM5.41602 21.0703C3.72656 21.0703 2.91602 20.5332 2.91602 19.3906C2.91602 16.7246 6.25586 13.1309 11.5 13.1309C16.7441 13.1309 20.084 16.7246 20.084 19.3906C20.084 20.5332 19.2734 21.0703 17.5938 21.0703H5.41602ZM5.08398 19.3809H17.916C18.1406 19.3809 18.2383 19.3125 18.2383 19.127C18.2383 17.6328 15.8164 14.8203 11.5 14.8203C7.18359 14.8203 4.77148 17.6328 4.77148 19.127C4.77148 19.3125 4.85938 19.3809 5.08398 19.3809Z" fill="black"/>
</svg>
