<svg width="25" height="24" viewBox="0 0 25 24" fill="none" xmlns="http://www.w3.org/2000/svg">
<path d="M4.18945 20.2402C2.06055 18.1016 2.08008 15.0449 4.4043 12.7207L13.291 3.83398C15.6152 1.51953 18.6719 1.49023 20.8105 3.61914C22.9395 5.76758 22.9199 8.81445 20.5957 11.1387L11.709 20.0254C9.38477 22.3594 6.32812 22.3691 4.18945 20.2402ZM14.5996 5.17188L10.791 8.98047L15.459 13.6484L19.2578 9.83984C20.8203 8.28711 21.0156 6.29492 19.5703 4.85938C18.1348 3.42383 16.123 3.63867 14.5996 5.17188ZM5.42969 19.0098C6.86523 20.4453 8.87695 20.2305 10.4102 18.6973L14.2285 14.8691L9.57031 10.2109L5.74219 14.0293C4.19922 15.582 3.98438 17.584 5.42969 19.0098Z" fill="black"/>
</svg>
