<svg width="24" height="24" viewBox="0 0 24 24" fill="none" xmlns="http://www.w3.org/2000/svg">
<path d="M4.28516 14.957C4.28516 12.8574 5.95508 10.6992 8.71875 9.68359L9.03125 5.14258C7.57617 4.3125 6.42383 3.4043 5.91602 2.75977C5.65234 2.4082 5.51562 2.05664 5.51562 1.74414C5.51562 1.09961 6.01367 0.621094 6.74609 0.621094H17.2441C17.9766 0.621094 18.4746 1.09961 18.4746 1.74414C18.4746 2.05664 18.3379 2.4082 18.0742 2.75977C17.5664 3.4043 16.4141 4.3125 14.959 5.14258L15.2812 9.68359C18.0352 10.6992 19.7051 12.8574 19.7051 14.957C19.7051 15.8359 19.1094 16.4219 18.1816 16.4219H12.957V21.041C12.957 22.418 12.2637 23.8047 12 23.8047C11.7266 23.8047 11.0332 22.418 11.0332 21.041V16.4219H5.80859C4.88086 16.4219 4.28516 15.8359 4.28516 14.957Z" fill="black"/>
</svg>
