<svg width="24" height="24" viewBox="0 0 24 24" fill="none" xmlns="http://www.w3.org/2000/svg">
<path d="M5.80859 16.4219C4.88086 16.4219 4.28516 15.8359 4.28516 14.957C4.28516 12.8574 5.95508 10.7773 8.51367 9.76172L8.82617 5.14258C7.57617 4.3125 6.41406 3.39453 5.91602 2.75C5.64258 2.4082 5.51562 2.05664 5.51562 1.74414C5.51562 1.09961 6.01367 0.621094 6.74609 0.621094H17.2441C17.9766 0.621094 18.4746 1.09961 18.4746 1.74414C18.4746 2.05664 18.3477 2.4082 18.0742 2.75C17.5762 3.39453 16.4238 4.3125 15.1641 5.14258L15.4863 9.76172C18.0352 10.7773 19.7051 12.8574 19.7051 14.957C19.7051 15.8359 19.1094 16.4219 18.1816 16.4219H12.957V21.041C12.957 22.418 12.2637 23.8047 12 23.8047C11.7266 23.8047 11.0332 22.418 11.0332 21.041V16.4219H5.80859ZM10.5645 4.36133L10.2715 9.25391C10.8281 9.15625 11.4043 9.09766 12 9.09766C12.5957 9.09766 13.1621 9.15625 13.7188 9.25391L13.4258 4.36133C13.416 4.19531 13.4453 4.12695 13.5625 4.05859C14.8906 3.375 15.9258 2.58398 16.0723 2.36914C16.1504 2.26172 16.082 2.17383 15.9844 2.17383H8.01562C7.9082 2.17383 7.83984 2.26172 7.91797 2.36914C8.07422 2.58398 9.09961 3.375 10.4277 4.05859C10.5449 4.12695 10.5742 4.19531 10.5645 4.36133ZM6.25781 14.7715H17.7422C17.9277 14.7715 18.0254 14.6641 17.9863 14.4297C17.752 12.6816 15.457 10.6992 12 10.6992C8.54297 10.6992 6.23828 12.6816 6.00391 14.4297C5.96484 14.6641 6.0625 14.7715 6.25781 14.7715Z" fill="black"/>
</svg>
