<svg width="25" height="24" viewBox="0 0 25 24" fill="none" xmlns="http://www.w3.org/2000/svg">
<path d="M12.1777 3.84375C9.92188 3.84375 7.88086 4.78125 6.43555 6.29492C5.9082 6.77344 5.39062 6.68555 5.04883 6.38281C4.6582 6.04102 4.54102 5.36719 5.04883 4.88867C6.8457 3.02344 9.38477 1.86133 12.1777 1.86133C17.1484 1.86133 21.2695 5.45508 22.1094 10.2012H23.4375C24.1699 10.2012 24.3555 10.7383 23.9551 11.2949L21.6895 14.4395C21.3672 14.8887 20.8887 14.8789 20.5762 14.4395L18.3105 11.2852C17.9199 10.7383 18.1055 10.2012 18.8281 10.2012H20.0879C19.2871 6.55859 16.0547 3.84375 12.1777 3.84375ZM0.917969 13.6973C0.185547 13.6973 0 13.1504 0.400391 12.6035L2.66602 9.44922C2.97852 9.00977 3.4668 9.01953 3.7793 9.44922L6.04492 12.6133C6.43555 13.1504 6.25 13.6973 5.52734 13.6973H4.26758C5.06836 17.3398 8.30078 20.0449 12.1777 20.0449C14.4336 20.0449 16.4746 19.1172 17.9199 17.6035C18.4473 17.125 18.9551 17.2031 19.3066 17.5156C19.6973 17.8574 19.8047 18.5312 19.2969 19.0098C17.5098 20.875 14.9707 22.0371 12.1777 22.0371C7.20703 22.0371 3.07617 18.4434 2.24609 13.6973H0.917969Z" fill="black"/>
</svg>
