<svg width="31" height="24" viewBox="0 0 31 24" fill="none" xmlns="http://www.w3.org/2000/svg">
<path d="M15.5 22.0371C9.93359 22.0371 5.41211 17.5156 5.41211 11.9492C5.41211 6.38281 9.93359 1.86133 15.5 1.86133C21.0664 1.86133 25.5879 6.38281 25.5879 11.9492C25.5879 17.5156 21.0664 22.0371 15.5 22.0371ZM22.0137 11.002H20.959C20.5195 8.39453 18.2441 6.40234 15.5 6.40234C14.2402 6.40234 13.0684 6.83203 12.2285 7.48633C11.6816 7.87695 11.6621 8.44336 11.9258 8.79492C12.1602 9.11719 12.6582 9.25391 13.1953 8.88281C13.8301 8.41406 14.6016 8.10156 15.5 8.10156C17.2969 8.10156 18.8008 9.33203 19.2207 11.002H18.4004C17.9023 11.002 17.7754 11.4902 18.0586 11.8809L19.6797 14.0977C19.9629 14.4883 20.4512 14.5176 20.7441 14.0977L22.3457 11.8809C22.6289 11.5 22.502 11.002 22.0137 11.002ZM8.98633 12.8965H10.041C10.4805 15.5137 12.7656 17.5059 15.5 17.5059C16.7695 17.5059 17.9316 17.0664 18.7715 16.4121C19.3184 16.0215 19.3379 15.4648 19.0742 15.1133C18.8398 14.7812 18.3516 14.6445 17.8047 15.0156C17.1699 15.4941 16.3984 15.7969 15.5 15.7969C13.7031 15.7969 12.1992 14.5664 11.7793 12.8965H12.5996C13.0977 12.8965 13.2246 12.4082 12.9414 12.0273L11.3203 9.80078C11.0371 9.41992 10.5488 9.39062 10.2559 9.80078L8.6543 12.0273C8.37109 12.4082 8.49805 12.8965 8.98633 12.8965Z" fill="black"/>
</svg>
