<svg width="24" height="24" viewBox="0 0 24 24" fill="none" xmlns="http://www.w3.org/2000/svg">
<path d="M12 22.0371C6.43359 22.0371 1.91211 17.5156 1.91211 11.9492C1.91211 6.38281 6.43359 1.86133 12 1.86133C17.5664 1.86133 22.0879 6.38281 22.0879 11.9492C22.0879 17.5156 17.5664 22.0371 12 22.0371ZM12.0098 6.83203C11.7559 6.83203 11.541 6.91016 11.2969 7.14453L7.98633 10.3379C7.82031 10.5039 7.72266 10.6895 7.72266 10.9336C7.72266 11.4023 8.09375 11.7344 8.54297 11.7344C8.77734 11.7344 9.02148 11.6367 9.17773 11.4609L10.6035 9.94727L11.1504 9.2832L11.0723 10.7871V16.1484C11.0723 16.6465 11.4922 17.0664 12.0098 17.0664C12.5273 17.0664 12.9473 16.6465 12.9473 16.1484V10.7871L12.8691 9.29297L13.4062 9.94727L14.832 11.4609C14.9883 11.6367 15.2227 11.7344 15.457 11.7344C15.9062 11.7344 16.2871 11.4023 16.2871 10.9336C16.2871 10.6895 16.1895 10.5039 16.0234 10.3379L12.7129 7.14453C12.4688 6.91016 12.2539 6.83203 12.0098 6.83203Z" fill="#050505"/>
</svg>
