<svg width="20" height="24" viewBox="0 0 20 24" fill="none" xmlns="http://www.w3.org/2000/svg">
<path d="M10.0293 4.79102C8.80859 4.79102 7.82227 3.80469 7.82227 2.58398C7.82227 1.36328 8.80859 0.376953 10.0293 0.376953C11.25 0.376953 12.2363 1.36328 12.2363 2.58398C12.2363 3.80469 11.25 4.79102 10.0293 4.79102ZM12.3145 22.3887L10.1367 17.9844C10.0488 17.8086 10.0195 17.7109 9.81445 17.4473L7.71484 14.8203C6.91406 13.8145 6.64062 13.248 6.72852 12.1055L6.9043 9.87891C6.92383 9.60547 6.58203 9.44922 6.31836 9.68359L5.5957 10.3379L5.36133 13.0137C5.30273 13.6875 4.94141 14.0488 4.3457 14.0098C3.75 13.9805 3.38867 13.5312 3.4375 12.8965L3.63281 10.4355C3.68164 9.76172 3.85742 9.32227 4.375 8.81445L5.9668 7.26172C6.97266 6.26562 7.72461 5.69922 8.82812 5.69922C10.3027 5.69922 11.1719 6.79297 11.0645 8.24805L10.8496 11.2461C10.7812 12.3203 10.6445 12.9648 10.2832 14.0488L10.1953 14.3027L11.5332 16.1973C11.7285 16.4902 11.9629 16.832 12.1191 17.1543L14.2285 21.4512C14.9512 22.8965 12.9688 23.7168 12.3145 22.3887ZM15.9473 9.76172C16.5918 9.76172 17.0312 10.1426 17.0312 10.7285C17.0312 11.3242 16.6016 11.6953 15.9473 11.6953H13.7207C13.0957 11.6953 12.793 11.5879 12.4414 11.2461L11.8945 10.6992L12.0605 8.0918L13.5645 9.76172H15.9473ZM4.77539 22.7012C3.93555 23.6973 2.26562 22.5059 3.29102 21.3047L6.36719 17.6621L6.86523 15.3379L8.59375 17.4863L8.36914 18.1504C8.24219 18.5215 8.20312 18.6191 7.89062 18.9902L4.77539 22.7012Z" fill="#020202"/>
</svg>
