<svg width="25" height="24" viewBox="0 0 25 24" fill="none" xmlns="http://www.w3.org/2000/svg">
<path d="M4.95117 21.3145C3.24219 21.3145 2.17773 20.084 2.17773 18.5508C2.17773 18.082 2.30469 17.6035 2.56836 17.1445L10.127 3.96094C10.6445 3.04297 11.5625 2.57422 12.5 2.57422C13.4277 2.57422 14.3457 3.04297 14.873 3.96094L22.4316 17.1445C22.6855 17.5938 22.8223 18.082 22.8223 18.5508C22.8223 20.084 21.748 21.3145 20.0488 21.3145H4.95117ZM5.11719 19.4785H19.873C20.4785 19.4785 20.8691 19 20.8691 18.4629C20.8691 18.2969 20.8301 18.0918 20.7324 17.916L13.3398 4.97656C13.1543 4.6543 12.8223 4.51758 12.5 4.51758C12.1777 4.51758 11.8359 4.6543 11.6504 4.97656L4.25781 17.8965C4.16016 18.082 4.13086 18.2969 4.13086 18.4629C4.13086 19 4.50195 19.4785 5.11719 19.4785ZM12.5 14.5664C11.9531 14.5664 11.6504 14.2539 11.6309 13.707L11.4941 8.94141C11.4746 8.375 11.8945 7.97461 12.4902 7.97461C13.0859 7.97461 13.5156 8.38477 13.4961 8.95117L13.3496 13.6973C13.3398 14.2637 13.0273 14.5664 12.5 14.5664ZM12.5 17.7988C11.875 17.7988 11.3574 17.3398 11.3574 16.7246C11.3574 16.1191 11.875 15.6602 12.5 15.6602C13.1348 15.6602 13.6426 16.1094 13.6426 16.7246C13.6426 17.3398 13.125 17.7988 12.5 17.7988Z" fill="black"/>
</svg>
