<svg width="25" height="24" viewBox="0 0 25 24" fill="none" xmlns="http://www.w3.org/2000/svg">
<path d="M4.95117 21.3145C3.24219 21.3145 2.17773 20.084 2.17773 18.5508C2.17773 18.082 2.30469 17.6035 2.56836 17.1445L10.127 3.96094C10.6445 3.04297 11.5625 2.57422 12.5 2.57422C13.4277 2.57422 14.3457 3.04297 14.873 3.96094L22.4316 17.1445C22.6855 17.5938 22.8223 18.082 22.8223 18.5508C22.8223 20.084 21.748 21.3145 20.0488 21.3145H4.95117ZM12.5098 14.625C13.0566 14.625 13.3789 14.3125 13.3984 13.7168L13.5449 8.80469C13.5645 8.20898 13.1152 7.78906 12.5 7.78906C11.8652 7.78906 11.4355 8.20898 11.4551 8.80469L11.5918 13.7266C11.6113 14.3027 11.9336 14.625 12.5098 14.625ZM12.5098 17.9844C13.1543 17.9844 13.7012 17.5156 13.7012 16.8711C13.7012 16.2266 13.1641 15.7578 12.5098 15.7578C11.8457 15.7578 11.3086 16.2363 11.3086 16.8711C11.3086 17.5156 11.8555 17.9844 12.5098 17.9844Z" fill="#0D0D0D"/>
</svg>
