<svg width="22" height="24" viewBox="0 0 22 24" fill="none" xmlns="http://www.w3.org/2000/svg">
<path d="M11 22.125C10.8242 22.125 10.5605 22.0566 10.3164 21.9199C4.71094 18.8535 2.74805 17.457 2.74805 13.9023V6.50977C2.74805 5.35742 3.20703 4.9375 4.16406 4.53711C5.24805 4.08789 8.91992 2.73047 9.98438 2.4375C10.2969 2.34961 10.668 2.26172 11 2.26172C11.3223 2.26172 11.6934 2.33008 12.0156 2.4375C13.0801 2.78906 16.7422 4.07812 17.8262 4.53711C18.793 4.94727 19.2422 5.35742 19.2422 6.50977V13.9023C19.2422 17.457 17.2988 18.8633 11.6836 21.9199C11.4297 22.0566 11.166 22.125 11 22.125ZM11 20.0742C11.1367 20.0742 11.2832 20.0254 11.5566 19.8496C15.9707 17.1934 17.416 16.4121 17.416 13.5312V6.82227C17.416 6.48047 17.3379 6.33398 17.0742 6.23633C15.5996 5.70898 12.8164 4.72266 11.5078 4.20508C11.2832 4.12695 11.1367 4.09766 11 4.09766C10.8535 4.09766 10.707 4.12695 10.4922 4.20508C9.17383 4.72266 6.37109 5.65039 4.92578 6.23633C4.65234 6.34375 4.58398 6.48047 4.58398 6.82227V13.5312C4.58398 16.3926 5.9707 17.1348 10.4336 19.8496C10.7168 20.0254 10.8535 20.0742 11 20.0742ZM11 13.3066C10.4531 13.3066 10.1504 13.0039 10.1309 12.4473L9.99414 7.69141C9.97461 7.125 10.3848 6.71484 10.9902 6.71484C11.5859 6.71484 12.0156 7.13477 11.9961 7.70117L11.8496 12.4473C11.8301 13.0039 11.5273 13.3066 11 13.3066ZM11 16.5391C10.375 16.5391 9.85742 16.0801 9.85742 15.4746C9.85742 14.8594 10.3652 14.4004 11 14.4004C11.6348 14.4004 12.1426 14.8496 12.1426 15.4746C12.1426 16.0898 11.625 16.5391 11 16.5391Z" fill="black"/>
</svg>
