<svg width="24" height="24" viewBox="0 0 24 24" fill="none" xmlns="http://www.w3.org/2000/svg">
<path d="M12 21.9102C6.50195 21.9102 2.03906 17.4473 2.03906 11.9492C2.03906 6.45117 6.50195 1.98828 12 1.98828C17.498 1.98828 21.9609 6.45117 21.9609 11.9492C21.9609 17.4473 17.498 21.9102 12 21.9102ZM12 20.25C16.5898 20.25 20.3008 16.5391 20.3008 11.9492C20.3008 7.35938 16.5898 3.64844 12 3.64844C7.41016 3.64844 3.69922 7.35938 3.69922 11.9492C3.69922 16.5391 7.41016 20.25 12 20.25ZM11.9121 8.57031C11.209 8.57031 10.6426 8.00391 10.6426 7.29102C10.6426 6.57812 11.209 6.01172 11.9121 6.01172C12.625 6.01172 13.1816 6.57812 13.1816 7.29102C13.1816 8.00391 12.625 8.57031 11.9121 8.57031ZM10.291 17.418C9.89062 17.418 9.57812 17.125 9.57812 16.7246C9.57812 16.3438 9.89062 16.041 10.291 16.041H11.502V11.5684H10.457C10.0566 11.5684 9.74414 11.2754 9.74414 10.875C9.74414 10.4941 10.0566 10.1914 10.457 10.1914H12.293C12.791 10.1914 13.0547 10.543 13.0547 11.0703V16.041H14.2656C14.666 16.041 14.9785 16.3438 14.9785 16.7246C14.9785 17.125 14.666 17.418 14.2656 17.418H10.291Z" fill="#0D0D0D"/>
</svg>
