<svg width="22" height="24" viewBox="0 0 22 24" fill="none" xmlns="http://www.w3.org/2000/svg">
<path d="M11 21.8711C10.8242 21.8711 10.5801 21.8125 10.3262 21.6758C4.80859 18.6582 2.88477 17.2812 2.88477 13.7852V6.50977C2.88477 5.37695 3.32422 4.95703 4.28125 4.56641C5.35547 4.12695 8.93945 2.82812 9.99414 2.49609C10.3164 2.4082 10.668 2.33008 11 2.33008C11.3223 2.33008 11.6836 2.39844 11.9961 2.49609C13.0508 2.84766 16.6445 4.12695 17.7188 4.56641C18.666 4.9668 19.1152 5.37695 19.1152 6.50977V13.7852C19.1152 17.2812 17.2695 18.7949 11.6738 21.6758C11.4199 21.8027 11.166 21.8711 11 21.8711ZM11.0098 13.3652C11.5566 13.3652 11.8789 13.0527 11.8984 12.4668L12.0449 7.55469C12.0645 6.95898 11.6152 6.5293 11 6.5293C10.3652 6.5293 9.93555 6.94922 9.95508 7.54492L10.0918 12.4668C10.1113 13.043 10.4336 13.3652 11.0098 13.3652ZM11.0098 16.7344C11.6543 16.7344 12.2012 16.2656 12.2012 15.6211C12.2012 14.9766 11.6641 14.498 11.0098 14.498C10.3457 14.498 9.80859 14.9766 9.80859 15.6211C9.80859 16.2559 10.3555 16.7344 11.0098 16.7344Z" fill="black"/>
</svg>
