<svg width="24" height="24" viewBox="0 0 24 24" fill="none" xmlns="http://www.w3.org/2000/svg">
<path d="M2.91797 13.9512C2.45898 13.9512 2.10742 13.5996 2.10742 13.1602C2.10742 12.7207 2.45898 12.3594 2.91797 12.3594H6.74609L8.79688 2.87695C8.97266 2.06641 10.1348 2.08594 10.2617 2.87695L12.7422 17.8965L15.0664 7.49609C15.2617 6.69531 16.4238 6.67578 16.5996 7.4668L17.7031 12.3594H21.0918C21.5508 12.3594 21.8926 12.7012 21.8926 13.1602C21.8926 13.5996 21.541 13.9512 21.0918 13.9512H17.2832C16.7754 13.9512 16.4824 13.707 16.375 13.209L15.8965 10.8359L13.5234 21.9785C13.3574 22.7891 12.1074 22.7988 11.9707 21.9785L9.5 7.10547L8.15234 13.2871C8.05469 13.7266 7.74219 13.9512 7.25391 13.9512H2.91797Z" fill="black"/>
</svg>
