<svg width="24" height="24" viewBox="0 0 24 24" fill="none" xmlns="http://www.w3.org/2000/svg">
<path d="M12 22.0371C6.43359 22.0371 1.91211 17.5156 1.91211 11.9492C1.91211 6.38281 6.43359 1.86133 12 1.86133C17.5664 1.86133 22.0879 6.38281 22.0879 11.9492C22.0879 17.5156 17.5664 22.0371 12 22.0371ZM12 20.0449C16.4824 20.0449 20.1055 16.4316 20.1055 11.9492C20.1055 7.4668 16.4824 3.84375 12 3.84375C7.51758 3.84375 3.89453 7.4668 3.89453 11.9492C3.89453 16.4316 7.51758 20.0449 12 20.0449ZM9.42188 15.7871C9.25586 15.9531 9.04102 16.0508 8.78711 16.0508C8.28906 16.0508 7.89844 15.6602 7.89844 15.1621C7.89844 14.9277 7.99609 14.7129 8.17188 14.5469L10.7598 11.9688L8.17188 9.37109C7.99609 9.20508 7.89844 8.99023 7.89844 8.75586C7.89844 8.26758 8.28906 7.88672 8.78711 7.88672C9.03125 7.88672 9.23633 7.97461 9.40234 8.15039L12 10.7285L14.5977 8.15039C14.7637 7.97461 14.959 7.88672 15.2129 7.88672C15.7012 7.88672 16.0918 8.26758 16.0918 8.75586C16.0918 8.99023 16.0039 9.20508 15.8281 9.37109L13.2402 11.9688L15.8281 14.5469C16.0039 14.7129 16.0918 14.9277 16.0918 15.1621C16.0918 15.6602 15.7012 16.0508 15.2129 16.0508C14.9492 16.0508 14.7441 15.9531 14.5781 15.7871L12 13.209L9.42188 15.7871Z" fill="black"/>
</svg>
