<svg width="24" height="24" viewBox="0 0 24 24" fill="none" xmlns="http://www.w3.org/2000/svg">
<path d="M12 22.0371C6.43359 22.0371 1.91211 17.5156 1.91211 11.9492C1.91211 6.38281 6.43359 1.86133 12 1.86133C17.5664 1.86133 22.0879 6.38281 22.0879 11.9492C22.0879 17.5156 17.5664 22.0371 12 22.0371ZM8.79688 16.0898C9.06055 16.0898 9.28516 15.9922 9.4707 15.8164L12 13.2676L14.5488 15.8164C14.7148 15.9922 14.9492 16.0898 15.2129 16.0898C15.7305 16.0898 16.1406 15.6797 16.1406 15.1523C16.1406 14.9082 16.043 14.6836 15.8672 14.5078L13.3184 11.959L15.877 9.40039C16.0625 9.21484 16.1406 9 16.1406 8.75586C16.1406 8.23828 15.7402 7.83789 15.2324 7.83789C14.9688 7.83789 14.7637 7.92578 14.5781 8.11133L12 10.6699L9.44141 8.12109C9.26562 7.94531 9.06055 7.85742 8.79688 7.85742C8.2793 7.85742 7.87891 8.24805 7.87891 8.76562C7.87891 9.00977 7.97656 9.23438 8.15234 9.41016L10.7012 11.959L8.15234 14.5176C7.97656 14.6934 7.87891 14.918 7.87891 15.1523C7.87891 15.6797 8.2793 16.0898 8.79688 16.0898Z" fill="black"/>
</svg>
